<svg xmlns="http://www.w3.org/2000/svg" xmlns:xlink="http://www.w3.org/1999/xlink" width="20" height="21" viewBox="0 0 20 21"><defs><clipPath id="a"><rect width="20" height="21" transform="translate(28 360)"/></clipPath></defs><g transform="translate(-28 -360)" opacity="0.7" clip-path="url(#a)"><g transform="translate(28 360.5)"><path d="M10,0A10,10,0,1,0,20,10,10.011,10.011,0,0,0,10,0Zm0,18.181A8.181,8.181,0,1,1,18.182,10,8.191,8.191,0,0,1,10,18.181Z"/><path d="M10,7.879a.909.909,0,0,0-.909.909v6.06a.909.909,0,1,0,1.818,0V8.788A.909.909,0,0,0,10,7.879Z"/><path d="M10,4.243a.908.908,0,1,0,.643.266A.917.917,0,0,0,10,4.243Z"/></g></g></svg>