<svg xmlns="http://www.w3.org/2000/svg" xmlns:xlink="http://www.w3.org/1999/xlink" width="25" height="25" viewBox="0 0 25 25"><defs><clipPath id="a"><rect width="25" height="25" transform="translate(0.192)" fill="#0447b7" stroke="#000" stroke-width="0.5"/></clipPath></defs><g transform="translate(-0.192)" clip-path="url(#a)"><path d="M21.528,13.525c1.856,0,3.472-.7,3.472-1.562S23.383,10.4,21.528,10.4s-3.472.7-3.472,1.563S19.672,13.525,21.528,13.525Zm.065-1.395c-.207-.063-.844-.116-.844-.469,0-.2.232-.373.666-.412v-.154h.223v.147a3.145,3.145,0,0,1,.545.063l-.081.239a2.221,2.221,0,0,0-.492-.069h-.05c-.334.014-.361.2-.13.278.379.117.879.2.879.514,0,.248-.3.381-.672.414v.152h-.223v-.145a2.242,2.242,0,0,1-.669-.106l.1-.239a2.422,2.422,0,0,0,.575.087l.145-.01c.257-.035.308-.208.026-.29Zm-.065,5.561A5.872,5.872,0,0,0,25,16.719v.452c0,.864-1.617,1.579-3.472,1.579s-3.472-.716-3.472-1.579v-.452A5.862,5.862,0,0,0,21.528,17.692Zm0-3.472A5.872,5.872,0,0,0,25,13.247V13.7c0,.864-1.617,1.562-3.472,1.562s-3.472-.7-3.472-1.562v-.452A5.87,5.87,0,0,0,21.528,14.22Zm0,1.736A5.865,5.865,0,0,0,25,14.982v.453C25,16.3,23.383,17,21.528,17s-3.472-.7-3.472-1.563v-.453A5.863,5.863,0,0,0,21.528,15.956Zm-8.793-3.218c0,.626-.49.96-1.094,1.044v.384h-.366V13.8a2.515,2.515,0,0,1-1.094-.265l.167-.6a2.24,2.24,0,0,0,1.175.2c.419-.095.505-.526.043-.734-.34-.156-1.378-.293-1.378-1.181a1.105,1.105,0,0,1,1.087-1.04V9.792h.366v.371a3.357,3.357,0,0,1,.891.153l-.132.6a2.333,2.333,0,0,0-.891-.169c-.543.032-.591.5-.213.7.624.294,1.439.511,1.439,1.293Zm6.015-7.53H1.042V15.625H0V4.167H18.75V5.208ZM2.083,6.25V17.708H16.667V11.963c0-1.867,2.068-2.823,4.167-2.995V6.25H2.083Zm9.375,9.375A3.646,3.646,0,1,1,15.1,11.979,3.646,3.646,0,0,1,11.458,15.625Z" transform="translate(-0.192 1.042)" fill="#0447b7" stroke="#000" stroke-width="0.5"/></g></svg>