<svg xmlns="http://www.w3.org/2000/svg" xmlns:xlink="http://www.w3.org/1999/xlink" width="25" height="25" viewBox="0 0 25 25"><defs><clipPath id="a"><rect width="25" height="25" transform="translate(0.192)" fill="red"/></clipPath></defs><g transform="translate(-0.192)" clip-path="url(#a)"><g transform="translate(-0.192 0.781)"><path d="M.391,5.078v6.836a.976.976,0,0,0,.977.977H20.215a.976.976,0,0,0,.977-.977V5.078Zm0,0" transform="translate(0.098 1.27)" fill="#2f2e41" opacity="0.27"/><path d="M23.77,8.4V20.117a.976.976,0,0,1-.977.977H3.945a.976.976,0,0,1-.977-.977V8.4a.976.976,0,0,1,.977-.977H22.793A.976.976,0,0,1,23.77,8.4Zm0,0" transform="translate(0.742 1.855)" fill="#0447b7"/><path d="M21.191,1.367V3.32H.391V1.367A.976.976,0,0,1,1.367.391H20.215A.976.976,0,0,1,21.191,1.367Zm0,0" transform="translate(0.098 0.098)" fill="#2f2e41"/><path d="M17.71,11.578A1.953,1.953,0,0,0,14.3,10.427h0V13.01h0a1.953,1.953,0,0,0,3.413-1.433Zm0,0" transform="translate(3.574 2.441)" fill="#b8b8b8"/><path d="M15.469,11.719a1.953,1.953,0,1,1-1.953-1.953A1.954,1.954,0,0,1,15.469,11.719Zm0,0" transform="translate(2.891 2.441)" fill="#fff"/><path d="M.391,2.734h20.8v2.93H.391Zm0,0" transform="translate(0.098 0.684)" fill="#0447b7"/><path d="M10.1,13.281a.488.488,0,1,0,.488.488A.488.488,0,0,0,10.1,13.281Zm0,0" transform="translate(2.402 3.32)"/><path d="M23.535,8.789H21.777V1.465A1.466,1.466,0,0,0,20.313,0H1.465A1.466,1.466,0,0,0,0,1.465V13.184a1.466,1.466,0,0,0,1.465,1.465H3.223v7.324a1.466,1.466,0,0,0,1.465,1.465H23.535A1.466,1.466,0,0,0,25,21.973V10.254A1.466,1.466,0,0,0,23.535,8.789ZM.977,3.906H20.8V5.859H.977ZM1.465.977H20.313a.489.489,0,0,1,.488.488V2.93H.977V1.465A.489.489,0,0,1,1.465.977Zm0,12.7a.489.489,0,0,1-.488-.488V6.836H20.8V8.789H4.688a1.466,1.466,0,0,0-1.465,1.465v3.418Zm22.559,8.3a.489.489,0,0,1-.488.488H4.688a.489.489,0,0,1-.488-.488V10.254a.489.489,0,0,1,.488-.488H23.535a.489.489,0,0,1,.488.488Zm0,0"/><path d="M16.543,9.375a2.443,2.443,0,0,0-1.465.489,2.441,2.441,0,1,0,0,3.9,2.441,2.441,0,1,0,1.465-4.394Zm-4.395,2.441a1.464,1.464,0,0,1,2.563-.969h0a1.465,1.465,0,1,1-2.563.968Zm4.395,1.465a1.466,1.466,0,0,1-.814-.248,2.436,2.436,0,0,0,0-2.435,1.465,1.465,0,1,1,.814,2.682Zm0,0" transform="translate(2.793 2.344)"/><path d="M7.363,15.625H5.41a.488.488,0,1,0,0,.977H7.363a.488.488,0,0,0,0-.977Zm0,0" transform="translate(1.23 3.906)"/><path d="M10.488,15.625H8.535a.488.488,0,0,0,0,.977h1.953a.488.488,0,0,0,0-.977Zm0,0" transform="translate(2.012 3.906)"/><path d="M13.613,15.625H11.66a.488.488,0,0,0,0,.977h1.953a.488.488,0,0,0,0-.977Zm0,0" transform="translate(2.793 3.906)"/><path d="M16.738,15.625H14.785a.488.488,0,0,0,0,.977h1.953a.488.488,0,0,0,0-.977Zm0,0" transform="translate(3.574 3.906)"/><path d="M5.41,14.258H9.316a.488.488,0,1,0,0-.977H5.41a.488.488,0,1,0,0,.977Zm0,0" transform="translate(1.23 3.32)"/></g></g></svg>