<svg xmlns="http://www.w3.org/2000/svg" width="20.4" height="14.035" viewBox="0 0 20.4 14.035"><g transform="translate(-82.8 -778.983)"><g transform="translate(83 753.994)"><path d="M16.351,35.158a1.847,1.847,0,0,0-1.3.538,1.81,1.81,0,0,0,0,2.59,1.854,1.854,0,0,0,1.3.538,1.833,1.833,0,0,0,0-3.665Zm0,2.851a1.018,1.018,0,1,1,0-2.036,1.018,1.018,0,0,1,0,2.036Z" stroke="#000" stroke-width="0.4"/><path d="M16.823,29.054a.4.4,0,0,0-.273-.106H14.461a.408.408,0,0,0-.407.407v3.339a.408.408,0,0,0,.407.407h3.315a.408.408,0,0,0,.407-.407V30.459a.408.408,0,0,0-.134-.3Zm.546,3.234h-2.5V29.758h1.523l.977.88Z" stroke="#000" stroke-width="0.4"/><path d="M6.406,35.158a1.847,1.847,0,0,0-1.3.538,1.81,1.81,0,0,0,0,2.59,1.854,1.854,0,0,0,1.3.538,1.833,1.833,0,0,0,0-3.665Zm0,2.851a1.018,1.018,0,1,1,0-2.036,1.018,1.018,0,0,1,0,2.036Z" stroke="#000" stroke-width="0.4"/><path d="M3.69,35.659H2.871V34.576a.407.407,0,1,0-.814,0v1.491a.408.408,0,0,0,.407.407H3.69a.407.407,0,0,0,0-.814Z" stroke="#000" stroke-width="0.4"/><path d="M5.754,33.44a.408.408,0,0,0-.407-.407H.407a.407.407,0,0,0,0,.814h4.94A.406.406,0,0,0,5.754,33.44Z" stroke="#000" stroke-width="0.4"/><path d="M1.234,31.969,6.174,32a.411.411,0,0,0,.411-.4.4.4,0,0,0-.4-.411l-4.94-.029h0a.407.407,0,0,0,0,.814Z" stroke="#000" stroke-width="0.4"/><path d="M2.065,30.121H7a.407.407,0,0,0,0-.814H2.065a.407.407,0,0,0,0,.814Z" stroke="#000" stroke-width="0.4"/><path d="M19.849,29.571h0l-2.916-2.415a.4.4,0,0,0-.261-.094H13.244V25.6a.408.408,0,0,0-.407-.407H2.464a.408.408,0,0,0-.407.407v2.981a.407.407,0,1,0,.814,0V26h9.562v9.656H9.094a.407.407,0,0,0,0,.814h4.973a.407.407,0,1,0,0-.814h-.819V27.877H16.53l2.655,2.2-.029,5.575h-.424a.407.407,0,1,0,0,.814h.827a.4.4,0,0,0,.407-.4L20,29.888A.43.43,0,0,0,19.849,29.571Z" stroke="#000" stroke-width="0.4"/></g></g></svg>