<svg xmlns="http://www.w3.org/2000/svg" width="14.876" height="13.246" viewBox="0 0 14.876 13.246">
  <g id="Iconly_Light_Hide" data-name="Iconly/Light/Hide" transform="translate(0.5 0.707)">
    <g id="Hide" transform="translate(0 0)">
      <path id="Stroke_1" data-name="Stroke 1" d="M.694,4.047A2.343,2.343,0,0,1,0,2.375,2.37,2.37,0,0,1,4.046.694" transform="translate(4.565 3.542)" fill="none" stroke="#000" stroke-linecap="round" stroke-linejoin="round" stroke-miterlimit="10" stroke-width="1"/>
      <path id="Stroke_3" data-name="Stroke 3" d="M1.9,0A2.369,2.369,0,0,1,0,1.907" transform="translate(7.364 6.338)" fill="none" stroke="#000" stroke-linecap="round" stroke-linejoin="round" stroke-miterlimit="10" stroke-width="1"/>
      <path id="Stroke_5" data-name="Stroke 5" d="M2.929,9.479A10.073,10.073,0,0,1,0,5.478,10.2,10.2,0,0,1,2.951,1.454,6.4,6.4,0,0,1,6.938,0a6.416,6.416,0,0,1,4,1.468" transform="translate(0 0.439)" fill="none" stroke="#000" stroke-linecap="round" stroke-linejoin="round" stroke-miterlimit="10" stroke-width="1"/>
      <path id="Stroke_7" data-name="Stroke 7" d="M7.486,0A11.52,11.52,0,0,1,8.837,2.36C7.362,5.778,4.755,7.837,1.9,7.837A5.986,5.986,0,0,1,0,7.527" transform="translate(5.039 3.556)" fill="none" stroke="#000" stroke-linecap="round" stroke-linejoin="round" stroke-miterlimit="10" stroke-width="1"/>
      <path id="Stroke_9" data-name="Stroke 9" d="M11.832,0,0,11.832" transform="translate(1.023)" fill="none" stroke="#000" stroke-linecap="round" stroke-linejoin="round" stroke-miterlimit="10" stroke-width="1"/>
    </g>
  </g>
</svg>
