<svg xmlns="http://www.w3.org/2000/svg" xmlns:xlink="http://www.w3.org/1999/xlink" width="20" height="21" viewBox="0 0 20 21"><defs><clipPath id="a"><rect width="20" height="21" transform="translate(28 411)"/></clipPath></defs><g transform="translate(-28 -411)" opacity="0.7" clip-path="url(#a)"><g transform="translate(28 411.5)"><circle cx="0.977" cy="0.977" r="0.977" transform="translate(9.023 13.809)"/><path d="M10,0A10,10,0,1,0,20,10,9.995,9.995,0,0,0,10,0Zm0,18.438A8.438,8.438,0,1,1,18.438,10,8.433,8.433,0,0,1,10,18.438Z"/><path d="M10,5.02A3.129,3.129,0,0,0,6.875,8.145a.781.781,0,0,0,1.563,0A1.563,1.563,0,1,1,10,9.707a.781.781,0,0,0-.781.781v1.953a.781.781,0,0,0,1.563,0V11.171A3.125,3.125,0,0,0,10,5.02Z"/></g></g></svg>