<svg xmlns="http://www.w3.org/2000/svg" width="17" height="20" viewBox="0 0 17 20"><g transform="translate(-328.5 -616)"><path d="M8.5,20a1.68,1.68,0,0,1-.986-.317l-.06-.048-.413-.278A20.728,20.728,0,0,1,2.507,15.1l-.316-.413A10.7,10.7,0,0,1,0,8.527l0-.285A8.513,8.513,0,0,1,8.5,0h.029l.256,0A8.515,8.515,0,0,1,17,8.553v.1c-.05,2.64-1.336,5.369-3.72,7.892a21.176,21.176,0,0,1-3.745,3.095l-.05.041A1.68,1.68,0,0,1,8.5,20ZM8.524,1.517l-.24,0A7,7,0,0,0,1.513,8.5l.019.357A9.183,9.183,0,0,0,3.4,13.772a19.187,19.187,0,0,0,4.9,4.6l.082.062a.182.182,0,0,0,.238,0l.085-.064A19.619,19.619,0,0,0,12.187,15.5c2.116-2.24,3.257-4.611,3.3-6.858l0-.332a7,7,0,0,0-6.96-6.791Z" transform="translate(328.5 616)"/><path d="M3.238,6.5A3.248,3.248,0,1,1,6.476,3.248,3.247,3.247,0,0,1,3.238,6.5Zm0-4.979A1.731,1.731,0,1,0,4.964,3.248,1.73,1.73,0,0,0,3.238,1.517Z" transform="translate(333.762 621.401)"/></g></svg>