<svg xmlns="http://www.w3.org/2000/svg" width="150.322" height="122.322" viewBox="0 0 150.322 122.322"><path d="M135.324,104.107h.458c.051-.058.1-.118.15-.177a9.77,9.77,0,0,0,2.056-4.394,9.533,9.533,0,0,0-.822-5.933,9.754,9.754,0,0,0-.888-1.471c-.12.026-.239.055-.356.09a9.222,9.222,0,0,1-.44,11.708Q135.406,104.019,135.324,104.107Z" transform="translate(12.176 18.215)" fill="#fff"/><path d="M108.954,81.124H76.773l-.341-9.895a2.97,2.97,0,0,1,3.33-3.051l18.727,2.293h0a10.491,10.491,0,0,1,10.463,10.484Z" transform="translate(-56.818 -9.873)" fill="#0447b7"/><path d="M98.138,57.965H75.693a2.272,2.272,0,0,0-2.273,2.273V82.683a2.272,2.272,0,0,0,2.273,2.273H98.138a2.272,2.272,0,0,0,2.273-2.273V60.238a2.272,2.272,0,0,0-2.273-2.273Z" transform="translate(-60.344 -21.812)" fill="#ccc"/><path d="M90.183,70.532,79.586,72.6a2.418,2.418,0,0,1-2.832-1.909L75.94,66.5a2.418,2.418,0,0,1,1.909-2.832l10.6-2.064a2.418,2.418,0,0,1,2.832,1.909l.815,4.183A2.418,2.418,0,0,1,90.183,70.532Z" transform="translate(-57.445 -17.596)"/><path d="M86.227,64.026,78.14,65.6a.568.568,0,1,1-.217-1.116L86.01,62.91a.568.568,0,1,1,.217,1.116Z" transform="translate(-55.608 -16.031)" fill="#fff"/><path d="M83.4,65.1l-4.183.815A.568.568,0,0,1,79,64.8l4.183-.815A.568.568,0,1,1,83.4,65.1Z" transform="translate(-54.35 -14.773)" fill="#fff"/><path d="M100.411,60.238v2.983H73.42V60.238a2.272,2.272,0,0,1,2.273-2.273H98.138A2.272,2.272,0,0,1,100.411,60.238Z" transform="translate(-60.344 -21.812)" fill="#b3b3b3"/><path d="M130.81,67.944a3.6,3.6,0,0,0-5.094-2.134L94.838,54.731l-1.36,7.714,30.78,8.464a3.621,3.621,0,0,0,6.552-2.966Z" transform="translate(-36.847 -25.6)" fill="#ffb8b8"/><path d="M130.81,67.944a3.6,3.6,0,0,0-5.094-2.134L94.838,54.731l-1.36,7.714,30.78,8.464a3.621,3.621,0,0,0,6.552-2.966Z" transform="translate(-36.847 -25.6)" opacity="0.2"/><path d="M104.814,57.65,101.9,65.268a1.615,1.615,0,0,1-2.3.83L92.511,62.11a4.485,4.485,0,1,1,3.231-8.368l7.913,1.755a1.615,1.615,0,0,1,1.158,2.154Z" transform="translate(-41.342 -27.114)" fill="#0447b7"/><path d="M117.758,64.064l-11.064,5.029,1.453,5.469a85.073,85.073,0,0,1,2.193,32.405h0l8.09,1.69,6.706-17.1-2.347-19.447Z" transform="translate(-21.364 -14.667)" fill="#0447b7"/><path d="M129.06,75.721c-7.27,0-13.194,5.285-13.481,11.9h26.963C142.254,81.006,136.33,75.721,129.06,75.721Z" transform="translate(-10.956 -1.01)"/><path d="M178.891,90.916C178.513,61.043,161.5,63.791,161.5,63.791s.318,9.3.471,9.588c10.842,20.513-7.051,44.561-29.827,40.137q-.644-.125-1.238-.254a11.6,11.6,0,0,1-9.107-13c2.244-18.017-8.915-17.7-8.915-17.7H96.566l-8.474-7.626a2.463,2.463,0,0,0-3.959.979l-1.09,2.959S66.949,80.555,68.29,96.314h4.976a10.05,10.05,0,0,0,.054,1.341l37.133-.3a4.064,4.064,0,0,1,4.107,3.923,3.941,3.941,0,0,1-4.072,3.955l-5.987-.2c-1.844,8.214,2.682,13.747,7.67,17.225a27.879,27.879,0,0,0,15.965,4.9H144.4c21.123,0,24.811-17.77,24.811-17.77C180.276,104.7,178.891,90.916,178.891,90.916Z" transform="translate(-66.446 -15.064)"/><circle cx="18.86" cy="18.86" r="18.86" transform="translate(98.238 84.099)"/><circle cx="4.623" cy="4.623" r="4.623" transform="translate(112.476 98.336)" fill="#fff"/><circle cx="21.71" cy="21.71" r="21.71" transform="translate(0.168 78.399)"/><circle cx="5.321" cy="5.321" r="5.321" transform="translate(16.556 94.788)" fill="#fff"/><path d="M109.009,78.6l-3.981-10.813a4.573,4.573,0,0,1,2.711-5.871l11.413-4.2a8.046,8.046,0,1,1,5.561,15.1Z" transform="translate(-23.647 -22.688)"/><path d="M121.921,65.174a7.9,7.9,0,0,1-2.951,6.149,10.055,10.055,0,0,1-6.605-13.847,7.881,7.881,0,0,1,9.556,7.7Z" transform="translate(-15.757 -22.596)" fill="#0447b7"/><ellipse cx="4.694" cy="5.7" rx="4.694" ry="5.7" transform="translate(0 72.029)" fill="#0447b7"/><path d="M69.493,50.838H73.6l1.956-10.661H69.492Z" transform="translate(-2.751 47.067)" fill="#ffb8b8"/><path d="M97.651,85.785h8.1a5.159,5.159,0,0,1,5.159,5.159v.167H97.651Z" transform="translate(-31.958 10.778)" fill="#2f2e41"/><path d="M115.314,105.328q-.072,0-.144-.007l-5.689-.414a1.509,1.509,0,0,1-1.277-2.022l7.613-17.1a1.173,1.173,0,0,0-.066-.938,1.157,1.157,0,0,0-.741-.59c-3.58-.936-12.765-3.427-20.716-6.343-3.406-1.249-5.552-3.054-6.377-5.365a7.572,7.572,0,0,1,.59-5.942l.054-.091,7.482.68,8.111.69,17.775,9.531a6.735,6.735,0,0,1,2.957,8.645l-8.194,18.376A1.508,1.508,0,0,1,115.314,105.328Z" transform="translate(-43.801 -11.799)" fill="#2f2e41"/><circle cx="8.235" cy="8.235" r="8.235" transform="translate(45.308 5.083)" fill="#ffb8b8"/><path d="M68.412,51.3h4.111L74.478,40.64H68.411Z" transform="translate(-4.017 47.61)" fill="#ffb8b8"/><path d="M96.57,86.248h8.1a5.159,5.159,0,0,1,5.159,5.159v.168H96.571Z" transform="translate(-33.224 11.321)" fill="#2f2e41"/><path d="M114.234,105.792q-.072,0-.144-.007l-5.689-.414a1.509,1.509,0,0,1-1.277-2.022l7.613-17.1a1.173,1.173,0,0,0-.066-.938,1.157,1.157,0,0,0-.741-.59c-3.58-.936-12.765-3.427-20.716-6.343-3.406-1.249-5.552-3.054-6.377-5.365a7.573,7.573,0,0,1,.59-5.942l.054-.091,7.482.68,8.111.69,17.775,9.531a6.734,6.734,0,0,1,2.957,8.645L115.611,104.9a1.508,1.508,0,0,1-1.377.894Z" transform="translate(-45.067 -11.257)" fill="#2f2e41"/><path d="M100.551,55.02,91.834,52s-5.473,4.2-2.844,14.635a25.821,25.821,0,0,1-1.14,16.2,16.693,16.693,0,0,1-.878,1.855S96.7,96.427,105.748,87.71l-3.52-16.932S107.76,59.546,100.551,55.02Z" transform="translate(-44.468 -28.797)" fill="#0447b7"/><path d="M99.631,63.149c-1.172-1.754-2.1-4.187-.807-5.856,1.274-1.648,3.786-1.4,5.737-2.134a6.5,6.5,0,0,0,3.8-7.066,8.384,8.384,0,0,0-5.52-6.2,11.952,11.952,0,0,0-8.494.462,12.97,12.97,0,0,0-7.308,7.4,9.972,9.972,0,0,0,1.908,10c2.637,2.776,6.775,3.515,10.6,3.47" transform="translate(-45.066 -41.316)"/><path d="M109.548,46.9c-1.477,1.2-3.73.668-5.315-.387s-2.872-2.558-4.587-3.385c-3.024-1.458-6.68-.489-9.623,1.127S84.47,48.1,81.361,49.37s-7.076,1.33-9.43-1.063A8.628,8.628,0,0,0,84.575,58.489c3.406-2.075,5.288-6.425,9.108-7.57,2.114-.634,4.384-.123,6.521.43s4.365,1.15,6.521.68,4.173-2.408,3.9-4.6Z" transform="translate(-62.642 -40.032)"/><path d="M130.834,65.341a3.6,3.6,0,0,0-5.318-1.489L93.506,56.667l-.4,7.823,31.589,4.6a3.621,3.621,0,0,0,6.136-3.751Z" transform="translate(-37.28 -23.332)" fill="#ffb8b8"/><path d="M104,58.56l-1.954,7.919a1.615,1.615,0,0,1-2.18,1.108L92.341,64.5a4.485,4.485,0,1,1,2.174-8.7l8.07.765A1.615,1.615,0,0,1,104,58.56Z" transform="translate(-42.161 -24.506)" fill="#0447b7"/><circle cx="2.347" cy="2.347" r="2.347" transform="translate(87.509 43.53)" fill="#0447b7"/></svg>